<svg xmlns="http://www.w3.org/2000/svg" viewBox="159.50 -54.50 885.00 885.00" width="512" height="512"><style>path{fill:#2D6E3F}@media(prefers-color-scheme:dark){path{fill:#7ABB87}}</style><path d="M0 0 C1.1913 -0.0079 1.1913 -0.0079 7.2202 -0.0478 C8.5077 -0.0427 8.5077 -0.0427 15.0234 -0.0171 C17.6909 -0.0205 20.3584 -0.0253 23.0259 -0.0316 C28.6144 -0.039 34.2025 -0.0282 39.791 -0.0049 C46.9538 0.0236 54.1156 0.0072 61.2784 -0.0227 C66.786 -0.0408 72.2933 -0.0351 77.801 -0.0221 C81.7262 -0.0171 85.6514 -0.0323 89.5767 -0.0478 C91.9593 -0.032 94.342 -0.0162 96.7969 0 C97.8471 0.002 97.8471 0.002 103.1616 0.0121 C108.3984 0.647 108.3984 0.647 114.3984 5.647 C116.5234 10.3345 116.5234 10.3345 118.3984 15.647 C120.4741 20.9934 122.4434 25.7218 125.3984 30.647 C127.1206 34.6653 128.8091 38.6993 130.3984 42.772 C132.3984 47.647 132.3984 47.647 135.3984 52.647 C136.4178 55.3063 137.4157 57.9739 138.3984 60.647 C140.5006 65.5739 142.6379 70.0461 145.3984 74.647 C146.4116 77.6425 147.4103 80.643 148.3984 83.647 C150.2527 88.0134 152.2146 92.2793 154.3359 96.522 C156.8276 101.5052 159.1098 106.5674 161.3984 111.647 C162.2647 113.5238 163.1309 115.4007 164.0234 117.3345 C165.3577 120.319 166.648 123.3276 167.7734 126.397 C169.8165 131.7402 172.2574 136.8569 174.6953 142.0298 C178.1996 149.4724 181.3439 157.0107 184.3984 164.647 C185.7236 167.6506 187.0578 170.6502 188.3984 173.647 C190.3984 178.3136 192.3984 182.9803 194.3984 187.647 C196.3306 192.0797 198.2985 196.4472 200.4609 200.772 C202.2414 204.3328 203.8302 207.9877 205.3984 211.647 C206.5122 213.9982 207.6259 216.3495 208.7734 218.772 C217.8487 238.2963 217.8487 238.2963 215.3984 245.647 C213.1327 248.046 210.7898 250.3732 208.3984 252.647 C206.0555 255.3052 203.7235 257.9731 201.3984 260.647 C190.3502 273.0263 178.7261 283.7624 165.3984 293.647 C163.5422 295.0288 161.6859 296.4107 159.7734 297.8345 C152.0924 303.2827 144.4051 308.2273 135.9609 312.397 C129.3984 315.647 129.3984 315.647 125.3984 318.647 C121.7531 320.3598 118.0839 322.0222 114.3984 323.647 C112.8928 324.3276 111.3872 325.0082 109.8359 325.7095 C105.0626 327.7936 100.2341 329.7127 95.3984 331.647 C94.0784 332.307 92.7584 332.967 91.3984 333.647 C89.7484 333.647 88.0984 333.647 86.3984 333.647 C80.6835 327.932 78.1031 320.1462 75.3984 312.647 C73.8193 308.9624 72.2139 305.2836 70.3984 301.7095 C68.4457 297.743 66.9233 293.7946 65.3984 289.647 C63.7441 285.6418 62.0764 281.6422 60.3984 277.647 C57.3397 270.3358 54.3231 263.0129 51.3984 255.647 C46.0993 260.9461 43.9774 267.7353 41.3984 274.647 C39.7384 278.3166 38.0711 281.983 36.3984 285.647 C34.7204 289.6422 33.0527 293.6418 31.3984 297.647 C28.8097 303.6874 26.1176 309.6648 23.3984 315.647 C21.6839 319.6476 19.9977 323.6614 18.3984 327.7095 C16.3984 332.647 16.3984 332.647 13.3984 338.647 C10.3984 345.647 10.3984 345.647 8.5859 351.0845 C5.1758 359.756 2.808 363.5627 -5.8516 367.4595 C-11.4198 369.264 -16.9739 371.0391 -22.6016 372.647 C-28.5495 374.3917 -34.4261 376.2638 -40.2891 378.272 C-47.6016 380.647 -47.6016 380.647 -54.6016 381.647 C-55.2616 380.987 -55.9216 380.327 -56.6016 379.647 C-55.6359 373.8528 -54.0391 369.9399 -51.6016 364.647 C-49.3853 359.2135 -47.2598 353.7532 -45.1641 348.272 C-40.5799 336.4202 -35.9331 324.676 -29.6016 313.647 C-27.9129 309.7067 -26.2474 305.7557 -24.6641 301.772 C-22.1759 295.5893 -19.5566 289.528 -16.5391 283.5845 C-14.6116 279.6674 -13.127 275.7352 -11.6016 271.647 C-9.9349 267.9803 -8.2682 264.3136 -6.6016 260.647 C-2.9807 252.1713 0.5644 243.6643 4.0859 235.147 C5.5937 231.561 7.1541 227.9965 8.7734 224.4595 C11.604 218.1917 14.1902 211.8494 16.75 205.4673 C18.3984 201.647 18.3984 201.647 21.3984 196.647 C22.0333 188.938 21.2576 184.2933 17.3984 177.647 C14.5357 171.3846 11.9421 165.0446 9.3984 158.647 C8.9963 157.6879 8.9963 157.6879 6.9609 152.8345 C5.1935 148.5668 3.4887 144.2728 1.8359 139.9595 C-0.7623 133.2306 -3.5642 126.7218 -6.7891 120.272 C-8.6016 116.647 -8.6016 116.647 -9.6016 113.647 C-10.5916 113.647 -11.5816 113.647 -12.6016 113.647 C-15.764 119.0823 -17.6444 124.6972 -19.6016 130.647 C-21.235 134.6606 -22.9082 138.6582 -24.6016 142.647 C-25.2371 144.1668 -25.8726 145.6866 -26.5273 147.2524 C-30.095 155.7786 -33.735 164.2509 -37.6016 172.647 C-39.5157 177.1132 -41.3572 181.6117 -43.1016 186.147 C-46.2993 194.461 -49.9037 202.5468 -53.6016 210.647 C-54.4266 212.462 -55.2516 214.277 -56.1016 216.147 C-56.9266 217.962 -57.7516 219.777 -58.6016 221.647 C-59.4472 223.5238 -60.2928 225.4007 -61.1641 227.3345 C-62.6212 230.5103 -64.1264 233.6657 -65.7266 236.772 C-67.7596 240.9735 -69.1459 245.2165 -70.6016 249.647 C-71.5916 251.627 -72.5816 253.607 -73.6016 255.647 C-75.9394 261.102 -78.1706 266.5667 -80.3516 272.0845 C-83.4266 279.7976 -86.641 287.4267 -90.0039 295.0181 C-92.2829 300.1947 -94.439 305.4209 -96.6016 310.647 C-98.1807 314.3316 -99.7861 318.0104 -101.6016 321.5845 C-103.5515 325.5453 -105.0735 329.5084 -106.6016 333.647 C-107.9174 336.6547 -109.2544 339.6532 -110.6016 342.647 C-111.7705 345.3126 -112.937 347.9794 -114.1016 350.647 C-116.5823 356.3224 -119.0779 361.9905 -121.6016 367.647 C-122.2616 369.1526 -122.9216 370.6582 -123.6016 372.2095 C-124.8268 374.9279 -126.1067 377.6235 -127.4766 380.272 C-129.9035 385.2686 -131.9179 390.3958 -133.9648 395.5571 C-144.3204 421.4336 -144.3204 421.4336 -157.6016 429.647 C-162.8382 433.2723 -168.0205 436.9529 -173.1641 440.7095 C-176.3934 443.048 -179.6713 445.325 -183.0391 447.4595 C-188.032 450.9477 -192.3283 454.8328 -196.7656 458.9907 C-198.9822 461.0669 -201.2512 463.0871 -203.5391 465.0845 C-209.3286 470.1615 -214.9585 475.4082 -220.6016 480.647 C-221.5916 479.987 -222.5816 479.327 -223.6016 478.647 C-222.6765 472.1718 -221.5346 469.2516 -218.6016 463.647 C-216.9915 459.8875 -215.4106 456.1154 -213.8516 452.3345 C-212.9737 450.2153 -212.0959 448.096 -211.1914 445.9126 C-210.3368 443.8449 -209.4821 441.7773 -208.6016 439.647 C-203.8473 428.1824 -198.9105 416.8659 -193.6016 405.647 C-192.7353 403.7288 -191.8691 401.8107 -190.9766 399.8345 C-189.3785 396.3439 -187.7099 392.8849 -185.9766 389.4595 C-183.8854 385.2222 -182.2137 381.0804 -180.6016 376.647 C-177.3165 368.6807 -174.019 360.7247 -170.4141 352.897 C-165.8274 342.7044 -161.5026 332.3995 -157.3516 322.022 C-154.0519 313.7728 -150.2773 305.7336 -146.6016 297.647 C-144.2231 292.3305 -141.896 287.0008 -139.6016 281.647 C-138.8178 279.9351 -138.0341 278.2232 -137.2266 276.4595 C-134.565 270.5661 -132.0667 264.625 -129.6016 258.647 C-125.5337 248.8246 -121.3556 239.155 -116.6016 229.647 C-112.8753 221.6908 -109.5195 213.6187 -106.25 205.4673 C-104.6016 201.647 -104.6016 201.647 -101.6016 196.647 C-100.5761 193.99 -99.5809 191.3213 -98.6016 188.647 C-96.9473 184.6418 -95.2796 180.6422 -93.6016 176.647 C-92.7353 174.5638 -91.8691 172.4807 -90.9766 170.3345 C-86.034 158.4983 -86.034 158.4983 -83.6016 153.7095 C-81.6489 149.743 -80.1264 145.7946 -78.6016 141.647 C-75.707 134.5962 -72.7055 127.6074 -69.6016 120.647 C-69.0962 119.4507 -69.0962 119.4507 -66.5391 113.397 C-63.6016 106.647 -63.6016 106.647 -60.6016 101.647 C-60.3953 101.0901 -60.3953 101.0901 -59.3516 98.272 C-57.2781 92.7921 -54.8014 87.5619 -52.3047 82.2642 C-48.8008 74.8225 -45.639 67.2895 -42.6016 59.647 C-40.0493 53.6917 -37.413 47.7924 -34.7266 41.897 C-34.305 40.9714 -34.305 40.9714 -32.1719 36.2876 C-31.3237 34.4262 -30.4755 32.5648 -29.6016 30.647 C-29.1717 29.6995 -29.1717 29.6995 -26.9961 24.9048 C-15.6674 0.0297 -15.6674 0.0297 0 0 Z " transform="translate(554.6015625,59.35302734375)"/>
<path d="M0 0 C1.65 0 3.3 0 5 0 C8.2584 5.4307 10.6018 10.9981 12.9375 16.875 C15.4525 23.1245 18.1996 29.2491 21 35.375 C21.66 36.9013 22.32 38.4275 23 40 C23.6922 41.4876 24.3845 42.9752 25.0977 44.5078 C27.7518 53.5656 27.5409 62.1141 27.4375 71.5 C27.4446 73.3137 27.4517 75.1274 27.459 76.9961 C27.4153 86.2038 26.9428 94.1864 24 103 C23.7525 104.2478 23.7525 104.2478 22.5 110.5625 C17.8657 133.5411 8.1898 154.6804 -5 174 C-5.8869 175.4025 -6.7737 176.805 -7.6875 178.25 C-12.0619 184.5227 -16.984 190.2353 -22 196 C-23.1125 197.2904 -24.2249 198.5807 -25.3711 199.9102 C-42.1885 218.8637 -61.7928 234.7067 -84 247 C-85.3806 247.7683 -86.7612 248.5366 -88.1836 249.3281 C-112.4675 262.7995 -137.3978 272.894 -163.75 281.5625 C-166.9772 282.6541 -170.1821 283.8119 -173.375 285 C-178.8724 286.9546 -184.3614 288.5093 -190 290 C-193.3358 290.9917 -196.6688 291.9929 -200 293 C-201.3264 293.3829 -202.6529 293.7657 -204.0195 294.1602 C-210.3608 295.9936 -216.6101 297.8575 -222.8125 300.125 C-228.4733 302.1711 -234.1561 303.5701 -240 305 C-243.008 305.9756 -246.0087 306.9744 -249 308 C-254.8681 309.8239 -260.7378 311.4521 -266.6875 313 C-274 315 -274 315 -281 318 C-286.1943 319.8101 -291.4162 321.4235 -296.6875 323 C-303 325 -303 325 -309 328 C-310.2994 328.4744 -311.5987 328.9488 -312.9375 329.4375 C-322.9824 333.3009 -325.5088 336.9437 -330 347 C-330.8869 348.9181 -331.7738 350.8363 -332.6875 352.8125 C-335.2059 358.4619 -337.6529 364.1267 -339.9375 369.875 C-341.8539 374.637 -343.9025 379.3157 -346 384 C-346.66 385.65 -347.32 387.3 -348 389 C-353.2759 389.5676 -353.2759 389.5676 -360.2266 389.4883 C-362.7016 389.4722 -365.1766 389.4561 -367.7266 389.4395 C-370.333 389.3976 -372.9395 389.3557 -375.625 389.3125 C-378.2392 389.2899 -380.8534 389.2674 -383.5469 389.2441 C-390.0318 389.185 -396.5156 389.1026 -403 389 C-401.348 383.2179 -399.4758 378.4331 -397 373 C-396.01 370.69 -395.02 368.38 -394 366 C-390.521 357.8824 -386.9487 349.8974 -383 342 C-382.01 339.69 -381.02 337.38 -380 335 C-379.2163 333.2881 -378.4325 331.5763 -377.625 329.8125 C-374.9639 323.92 -372.4776 317.9716 -370 312 C-368.6778 308.9951 -367.3454 305.9946 -366 303 C-365.3606 301.5562 -364.7212 300.1125 -364.0625 298.625 C-357.7803 284.5377 -357.7803 284.5377 -354.875 278.8125 C-352.9681 274.9352 -351.5044 271.0502 -350 267 C-346.9126 259.6323 -343.7197 252.35 -340.3125 245.125 C-337.9729 240.0926 -335.8667 235.2071 -334 230 C-333.34 228.68 -332.68 227.36 -332 226 C-332 224.02 -332 222.04 -332 220 C-337.7291 222.2916 -341.9874 225.4027 -347 229 C-352.3013 232.7235 -357.6094 236.4063 -363 240 C-381.2868 253.7151 -398.0424 268.6628 -413 286 C-414.0944 287.2478 -415.1888 288.4956 -416.3164 289.7812 C-421.7779 296.038 -427.1379 302.2593 -432 309 C-433.4644 310.9181 -434.9287 312.8363 -436.4375 314.8125 C-451.4139 335.1229 -467.3446 360.2619 -474.3643 384.7615 C-475.2341 386.1602 -476.1038 387.5589 -477 389 C-482.5029 390.0217 -482.5029 390.0217 -489.4219 389.8789 C-491.8904 389.8499 -494.359 389.8209 -496.9023 389.791 C-499.4921 389.7156 -502.0818 389.6402 -504.75 389.5625 C-507.3552 389.5219 -509.9604 389.4813 -512.6445 389.4395 C-519.0982 389.3331 -525.5482 389.1848 -532 389 C-530.695 382.7546 -529.099 377.6561 -526.125 372 C-523.2293 366.3965 -520.5379 360.776 -518 355 C-516.3503 351.6582 -514.6831 348.3251 -513 345 C-512.2162 343.3706 -511.4325 341.7413 -510.625 340.0625 C-507.7284 334.4762 -504.3929 329.2978 -501 324 C-500.01 322.185 -499.02 320.37 -498 318.5 C-493.1798 309.6629 -487.5793 301.3689 -482 293 C-480.9069 291.2262 -479.8138 289.4525 -478.6875 287.625 C-474.8094 281.7092 -470.5512 276.4122 -466 271 C-464.5769 269.2469 -463.1538 267.4937 -461.6875 265.6875 C-460.1406 263.8106 -458.5938 261.9337 -457 260 C-456.1183 258.9301 -455.2366 257.8602 -454.3281 256.7578 C-443.3052 243.6196 -431.4143 231.6995 -418 221 C-416.009 219.1796 -414.0303 217.3456 -412.0625 215.5 C-403.3672 207.4459 -393.7109 200.7608 -384 194 C-383.1028 193.34 -383.1028 193.34 -378.5625 190 C-371.2879 184.7689 -364.0173 180.0087 -356 176 C-354.2469 174.8656 -352.4937 173.7312 -350.6875 172.5625 C-345.7995 169.5008 -341.2912 167.2279 -336 165 C-333.5379 163.8622 -331.0799 162.7156 -328.625 161.5625 C-324.1158 159.4501 -319.5992 157.366 -315.0625 155.3125 C-311.986 153.9072 -308.9345 152.4427 -305.9375 150.875 C-301.4019 148.7152 -296.8133 147.4193 -292 146 C-290.02 145.01 -288.04 144.02 -286 143 C-279.4258 140.393 -272.7076 138.2359 -266 136 C-264.7419 135.5256 -263.4837 135.0512 -262.1875 134.5625 C-252.5842 130.9792 -242.8202 127.9227 -233 125 C-229.937 124.0225 -226.8745 123.0431 -223.8125 122.0625 C-215.5934 119.4561 -207.3415 117.1793 -199 115 C-194.2127 113.6084 -189.4723 112.1597 -184.75 110.5625 C-180.8433 109.2774 -176.8946 108.1206 -172.9375 107 C-167.8075 105.5211 -162.9587 103.9331 -158 102 C-152.9502 100.292 -147.8851 98.6396 -142.8125 97 C-137 95 -137 95 -131 92 C-128.3371 90.9899 -125.6698 89.9916 -123 89 C-115.3884 85.9553 -108.0259 82.6089 -100.7188 78.8906 C-98.1234 77.5711 -95.5183 76.2705 -92.9062 74.9844 C-85.3919 71.2837 -78.111 67.4444 -71 63 C-70.3813 62.6184 -70.3813 62.6184 -67.25 60.6875 C-65.8475 59.8006 -64.445 58.9137 -63 58 C-61.9365 57.3297 -60.873 56.6594 -59.7773 55.9688 C-38.0494 42.1612 -13.797 25.5941 -2 2 C-1.34 1.34 -0.68 0.68 0 0 Z M-27 92 C-31.8057 95.0036 -36.385 98.2743 -41 101.5625 C-45.5615 104.6985 -50.1379 107.3664 -55 110 C-56.6294 110.99 -58.2587 111.98 -59.9375 113 C-64.8667 115.921 -69.8513 118.49 -75 121 C-76.6087 121.8044 -78.2175 122.6087 -79.875 123.4375 C-81.5662 124.2831 -83.2575 125.1287 -85 126 C-85.9797 126.5053 -85.9797 126.5053 -90.9375 129.0625 C-96.5601 131.7869 -102.1136 133.9264 -108 136 C-109.8769 136.7837 -111.7537 137.5675 -113.6875 138.375 C-125.2959 143.2023 -136.9616 147.3634 -149 151 C-149.66 151.2475 -149.66 151.2475 -153 152.5 C-160.6916 155.3843 -168.5347 157.6337 -176.5 159.625 C-182 161 -182 161 -187 163 C-191 164 -195 165 -199 166 C-202.0039 166.9881 -205.0044 167.9868 -208 169 C-210.6667 169.6667 -213.3333 170.3333 -216 171 C-219.0084 171.9745 -222.0083 172.9754 -225 174 C-230.0764 175.6921 -235.1534 177.3691 -240.25 179 C-246 181 -246 181 -251 184 C-253.31 184.99 -255.62 185.98 -258 187 C-265.0523 192.8769 -266.9471 198.6769 -270 207 C-274.4564 217.9288 -274.4564 217.9288 -277.125 223.1875 C-279.1806 227.3671 -280.5657 231.5725 -282 236 C-285.4476 244.0444 -289.0719 251.9962 -292.75 259.9375 C-295 265 -295 265 -296 269 C-295.34 269.66 -294.68 270.32 -294 271 C-289 270 -289 270 -283 267 C-273.0257 263.4607 -262.8401 260.4236 -252.6875 257.4375 C-249.3176 256.4041 -245.9863 255.2419 -242.6875 254 C-236.5221 251.8319 -230.3751 250.4236 -224 249 C-219.2387 247.6396 -214.5505 246.1918 -209.875 244.5625 C-204.2945 242.7739 -198.6663 241.408 -192.9648 240.0625 C-188.8454 238.9586 -184.9824 237.5233 -181 236 C-175.7379 234.2487 -170.4656 232.531 -165.1914 230.8164 C-160.3177 229.1112 -155.6915 227.1488 -151 225 C-149.1644 224.2575 -147.3288 223.515 -145.4375 222.75 C-137.7845 219.4808 -130.414 215.7723 -123 212 C-121.2056 211.1131 -119.4112 210.2262 -117.5625 209.3125 C-112.9718 206.9857 -108.4838 204.5261 -104 202 C-102.5356 201.2162 -101.0712 200.4325 -99.5625 199.625 C-69.8026 182.5029 -47.5623 156.4074 -34 125 C-33.5875 124.0616 -33.5875 124.0616 -31.5 119.3125 C-23.4828 99.069 -23.4828 99.069 -25 93 C-25.66 92.67 -26.32 92.34 -27 92 Z " transform="translate(780,326)"/>
<path d="M0 0 C6.8961 6.8961 10.039 16.1867 14 25 C14.4125 25.9075 14.4125 25.9075 16.5 30.5 C17.325 32.315 18.15 34.13 19 36 C19.8456 37.8562 20.6912 39.7125 21.5625 41.625 C25.2207 49.6918 28.7283 57.768 32 66 C33.7049 69.978 35.4363 73.9454 37.25 77.875 C40.0873 84.1945 42.7364 90.5707 45.3516 96.9844 C49.5939 107.3188 49.5939 107.3188 51.9375 111.25 C54.5482 115.9967 56.2039 120.8924 58 126 C60.8563 133.6507 64.3657 140.8346 68.0508 148.1094 C70.5074 153.0127 72.7618 157.9936 75 163 C78.2436 170.1359 81.5833 177.1961 85.125 184.1875 C88.07 190.0271 90.6449 195.8941 93 202 C93.99 203.98 94.98 205.96 96 208 C96.99 210.31 97.98 212.62 99 215 C99.9694 216.8975 100.9388 218.795 101.9375 220.75 C104.7251 226.4389 106.9163 232.0268 109 238 C111.0588 243.3653 113.0397 248.0661 116 253 C117.0194 255.6593 118.0173 258.3269 119 261 C121.2005 266.0885 123.5194 271.0389 126 276 C126 277.32 126 278.64 126 280 C103.0088 280.324 80.0182 280.5729 57.0253 280.7254 C46.3493 280.7985 35.6748 280.8978 24.9998 281.0562 C14.7032 281.2079 4.4082 281.2919 -5.8894 281.3283 C-9.8237 281.3542 -13.758 281.4048 -17.6917 281.4802 C-23.191 281.5814 -28.6842 281.5959 -34.1843 281.5894 C-35.0029 281.6145 -35.0029 281.6145 -39.1452 281.7419 C-43.6791 281.6836 -43.6791 281.6836 -51 280 C-54.4221 273.1741 -54.4221 273.1741 -56 266 C-57.2713 263.3032 -58.5946 260.6294 -60 258 C-62.52 253.0363 -64.8022 248.1281 -67 243 C-67.7838 241.2881 -68.5675 239.5762 -69.375 237.8125 C-72.0365 231.9191 -74.5348 225.978 -77 220 C-83.9108 203.3811 -83.9108 203.3811 -87.3711 195.8164 C-90.046 189.8982 -92.5731 183.9359 -95.0625 177.9375 C-95.8991 175.9253 -96.7357 173.913 -97.5977 171.8398 C-98.3904 169.9127 -99.1832 167.9855 -100 166 C-100.3809 165.1241 -100.3809 165.1241 -102.3086 160.6914 C-104 156 -104 156 -104 149 C-100.0187 144.3021 -96.1647 141.4431 -91 138 C-82.7764 132.3788 -75.6287 126.0966 -68.4375 119.2461 C-65.9701 116.9161 -63.4164 114.6764 -60.8125 112.5 C-53.2112 105.5218 -46.7151 97.5726 -41 89 C-40.2072 87.8282 -39.4145 86.6565 -38.5977 85.4492 C-28.6879 70.7448 -20.1184 55.5344 -14.5625 38.625 C-13.4863 35.4394 -12.2904 32.2925 -11 29.1875 C-9 24 -9 24 -7.5 18 C-4 4 -4 4 0 0 Z " transform="translate(830,435)"/>
</svg>